<svg id="Layer_1" data-name="Layer 1" xmlns="http://www.w3.org/2000/svg" viewBox="0 0 430 430"><defs><style>.cls-1{fill:#fff;}.cls-2{fill:none;stroke:#fff;stroke-miterlimit:10;stroke-width:6px;}</style></defs><title>mymobileArtboard 1</title><path d="M57.1,109.7,60,139.2a75,75,0,0,1,28-24.8c11.3-5.9,24.4-8.8,39.4-8.8s27.8,3.5,38.6,10.4,31.5,75.9,31.5,75.9V334.7H156.3V199.8c0-21.1-3.9-36.5-11.7-46.3s-19.1-14.7-33.8-14.7c-12.5,0-22.7,2.6-30.8,7.7a49.66,49.66,0,0,0-18.5,21.6V334.6h-41V109.7Z"/><path d="M406.6,109.7V334.6H365.7V168.2a49.66,49.66,0,0,0-18.5-21.6c-8-5.1-18.3-7.7-30.8-7.7-14.7,0-25.9,4.9-33.8,14.7s-11.7,25.2-11.7,46.3V334.8H229.8V191.9S250.5,123,261.3,116s23.6-10.4,38.5-10.4,28.1,2.9,39.4,8.8a76.43,76.43,0,0,1,27.9,24.8l2.9-29.5Z"/><path d="M167.8,349.9a11.27,11.27,0,0,1-8.1-3.4,11.44,11.44,0,0,1-3.4-8.1l.2-239.9A11.57,11.57,0,0,1,168,87l91.1.1a11.57,11.57,0,0,1,11.5,11.5l-.2,239.9A11.57,11.57,0,0,1,258.9,350Z"/><path d="M168.1,87.5l91.1.1a11.4,11.4,0,0,1,7.8,3.2,10.8,10.8,0,0,1,3.2,7.8L270,338.5a11,11,0,0,1-11,11l-91.1-.1a11.4,11.4,0,0,1-7.8-3.2,10.8,10.8,0,0,1-3.2-7.8l.2-239.9a11,11,0,0,1,11-11h0m0-1a12,12,0,0,0-12,12l-.2,239.9a12,12,0,0,0,12,12l91.1.1h0a12,12,0,0,0,12-12l.2-239.9a12,12,0,0,0-12-12l-91.1-.1Z"/><path class="cls-1" d="M182.3,140.2a15.85,15.85,0,1,1,15.8-15.8,15.86,15.86,0,0,1-15.8,15.8Z"/><path d="M182.3,108v1a15.35,15.35,0,1,1-.1,0l.1-1m0,0a16.35,16.35,0,0,0,0,32.7h0a16.35,16.35,0,0,0,0-32.7Z"/><circle cx="182.26" cy="124.31" r="6.6" transform="matrix(0, -1, 1, 0, 57.77, 306.44)"/><circle class="cls-1" cx="204.4" cy="117.8" r="3.8"/><line class="cls-2" x1="155.9" y1="101" x2="271.2" y2="101"/><line class="cls-2" x1="155.9" y1="335" x2="271.2" y2="335"/></svg>