<svg id="Layer_1" data-name="Layer 1" xmlns="http://www.w3.org/2000/svg" viewBox="0 0 545 317.92"><defs><style>.cls-1,.cls-2{fill:#fff;}.cls-2{stroke:#fff;stroke-miterlimit:10;stroke-width:6px;}</style></defs><title>mymobileArtboard 1</title><path d="M114.6,53.7l2.91,29.52a76.4,76.4,0,0,1,28-24.84q16.94-8.83,39.39-8.84t38.56,10.39c10.74,6.93,31.5,75.88,31.5,75.88V278.63H213.76V143.71q0-31.6-11.75-46.25T168.24,82.8q-18.71,0-30.77,7.69A49.68,49.68,0,0,0,119,112.11V278.63H78V53.7Z"/><path d="M464.09,53.7V278.63H423.16V112.11a49.68,49.68,0,0,0-18.49-21.62q-12-7.69-30.75-7.69-22,0-33.77,14.66T328.4,143.71V278.63H287.26V135.81S308,66.86,318.74,59.93s23.58-10.39,38.55-10.39,28.09,2.95,39.38,8.84a76.38,76.38,0,0,1,27.95,24.84l2.91-29.52Z"/><path d="M225.31,293.89a11.54,11.54,0,0,1-11.49-11.51l.25-239.93A11.52,11.52,0,0,1,225.57,31l91.14.09A11.51,11.51,0,0,1,328.2,42.57l-.25,239.93A11.52,11.52,0,0,1,316.45,294Z"/><path d="M225.58,31.46l91.13.09a11,11,0,0,1,11,11l-.25,239.93a11,11,0,0,1-11,11l-91.13-.09a11,11,0,0,1-11-11l.25-239.93a11,11,0,0,1,11-11h0m0-1a12,12,0,0,0-12,12l-.25,239.93a12,12,0,0,0,12,12l91.13.09h0a12,12,0,0,0,12-12l.25-239.93a12,12,0,0,0-12-12l-91.13-.09Z"/><path class="cls-1" d="M239.77,84.12A15.84,15.84,0,1,1,255.62,68.3a15.85,15.85,0,0,1-15.85,15.82Z"/><path d="M239.78,51.94l0,1a15.34,15.34,0,1,1-15.35,15.32A15.35,15.35,0,0,1,239.8,52.94v-1m0,0a16.34,16.34,0,0,0,0,32.67h0a16.34,16.34,0,0,0,0-32.67Z"/><circle cx="239.78" cy="68.28" r="6.56" transform="translate(171.26 307.99) rotate(-89.94)"/><circle class="cls-1" cx="261.93" cy="61.71" r="3.83"/><line class="cls-2" x1="179.5" y1="38.96" x2="359.5" y2="38.96"/><line class="cls-2" x1="186.64" y1="278.96" x2="366.64" y2="278.96"/></svg>